<svg width="21.53pt" height="21pt" version="1.2" viewBox="0 0 21.53 21" xmlns="http://www.w3.org/2000/svg"><g transform="translate(-339.8 -382.8)" fill="#fff"><path d="m350.6 382.8c-5.945 0-10.77 4.82-10.77 10.77 0 4.756 3.084 8.792 7.362 10.22 0.5376 0.0996 0.7354-0.234 0.7354-0.5181 0-0.2563-0.0104-1.104-0.0146-2.004-2.995 0.6511-3.627-1.27-3.627-1.27-0.4902-1.244-1.196-1.575-1.196-1.575-0.977-0.6685 0.0738-0.6546 0.0738-0.6546 1.081 0.0759 1.65 1.109 1.65 1.109 0.9596 1.646 2.518 1.17 3.132 0.8949 0.0968-0.6957 0.376-1.171 0.6838-1.439-2.391-0.2723-4.905-1.195-4.905-5.32 0-1.175 0.4206-2.136 1.109-2.889-0.1114-0.2716-0.4798-1.366 0.1045-2.85 0 0 0.9039-0.289 2.961 1.104 0.8593-0.2382 1.78-0.3579 2.695-0.3621 0.915 4e-3 1.836 0.124 2.697 0.3621 2.054-1.393 2.958-1.104 2.958-1.104 0.5857 1.483 0.2173 2.578 0.1052 2.85 0.6908 0.7535 1.108 1.714 1.108 2.889 0 4.135-2.518 5.045-4.916 5.312 0.3865 0.3343 0.7305 0.9889 0.7305 1.994 0 1.44-0.0125 2.6-0.0125 2.954 0 0.2869 0.1936 0.6226 0.7396 0.5167 4.275-1.425 7.356-5.459 7.356-10.21 0-5.946-4.82-10.77-10.77-10.77" fill-rule="evenodd"/><g><path d="m343.9 398.3c-0.0237 0.0536-0.1079 0.0703-0.1845 0.0334-0.078-0.0355-0.1219-0.1086-0.0968-0.1623 0.023-0.055 0.1072-0.0703 0.1852-0.0334 0.0787 0.0355 0.1233 0.1086 0.0961 0.1622"/><path d="m344.4 398.8c-0.0515 0.0473-0.1518 0.0258-0.2201-0.0494-0.0703-0.0752-0.0836-0.1762-0.0313-0.2242 0.0529-0.0474 0.1504-0.0251 0.2208 0.0501 0.0703 0.0759 0.0843 0.1755 0.0306 0.2235"/><path d="m344.8 399.4c-0.0662 0.046-0.1741 3e-3 -0.241-0.0926-0.0662-0.0961-0.0662-0.211 1e-3 -0.257 0.0669-0.046 0.1734-4e-3 0.241 0.0905 0.0655 0.0975 0.0655 0.2124-1e-3 0.259"/><path d="m345.4 400c-0.0592 0.0655-0.1852 0.048-0.2772-0.0411-0.094-0.0864-0.1198-0.2096-0.0613-0.2751 0.0599-0.0648 0.1866-0.0466 0.2792 0.0411 0.0933 0.087 0.1219 0.211 0.0592 0.2751"/><path d="m346.2 400.3c-0.0265 0.0843-0.1476 0.1226-0.2695 0.0863-0.1219-0.0369-0.2013-0.1351-0.1769-0.2208 0.0258-0.085 0.1469-0.1247 0.2702-0.0864 0.1212 0.0369 0.2013 0.1351 0.1762 0.2208"/><path d="m347 400.4c3e-3 0.0891-0.1003 0.163-0.2284 0.1643-0.1288 3e-3 -0.2333-0.0689-0.2347-0.1567 0-0.0891 0.1017-0.1623 0.2298-0.1644 0.1281-3e-3 0.2333 0.0689 0.2333 0.1567"/><path d="m347.9 400.3c0.0153 0.0864-0.0738 0.1755-0.2006 0.1992-0.1254 0.023-0.241-0.0306-0.257-0.1163-0.0153-0.0891 0.0752-0.1776 0.1999-0.2006 0.1274-0.0223 0.2416 0.0299 0.2577 0.1177"/></g></g></svg>
