<svg width="21.53pt" height="21pt" version="1.2" viewBox="0 0 21.53 21" xmlns="http://www.w3.org/2000/svg"><g transform="translate(-339.8 -106.8)" fill="#191714"><path d="m350.6 106.8c-5.945 0-10.77 4.82-10.77 10.77 0 4.756 3.084 8.792 7.362 10.22 0.5376 0.0996 0.7354-0.234 0.7354-0.5181 0-0.2563-0.0105-1.104-0.0146-2.004-2.995 0.6511-3.627-1.27-3.627-1.27-0.4903-1.244-1.196-1.575-1.196-1.575-0.977-0.6685 0.0738-0.6546 0.0738-0.6546 1.081 0.076 1.65 1.109 1.65 1.109 0.9596 1.646 2.518 1.17 3.132 0.8948 0.0968-0.6957 0.376-1.171 0.6838-1.439-2.391-0.2723-4.905-1.195-4.905-5.32 0-1.175 0.4206-2.136 1.109-2.889-0.1114-0.2716-0.4798-1.366 0.1044-2.85 0 0 0.9039-0.289 2.961 1.104 0.8593-0.2382 1.78-0.3579 2.695-0.3621 0.915 5e-3 1.836 0.124 2.697 0.3621 2.054-1.393 2.958-1.104 2.958-1.104 0.5857 1.483 0.2173 2.578 0.1051 2.85 0.6908 0.7535 1.108 1.715 1.108 2.889 0 4.135-2.518 5.045-4.916 5.312 0.3865 0.3343 0.7305 0.9889 0.7305 1.994 0 1.44-0.0125 2.6-0.0125 2.954 0 0.2869 0.1936 0.6226 0.7396 0.5167 4.275-1.425 7.356-5.459 7.356-10.21 0-5.946-4.82-10.77-10.77-10.77" fill-rule="evenodd"/><g><path d="m343.9 122.3c-0.0237 0.0537-0.1079 0.0703-0.1846 0.0334-0.078-0.0355-0.1219-0.1086-0.0968-0.1622 0.023-0.0551 0.1072-0.0703 0.1852-0.0334 0.0788 0.0355 0.1233 0.1086 0.0961 0.1622"/><path d="m344.4 122.8c-0.0516 0.0474-0.1518 0.0258-0.22-0.0495-0.0704-0.0752-0.0835-0.1762-0.0314-0.2242 0.053-0.0474 0.1504-0.0251 0.2208 0.0502 0.0704 0.076 0.0842 0.1755 0.0307 0.2236"/><path d="m344.8 123.4c-0.0661 0.046-0.1741 3e-3 -0.241-0.0926-0.0662-0.0961-0.0662-0.211 1e-3 -0.257 0.0668-0.046 0.1734-5e-3 0.241 0.0905 0.0654 0.0975 0.0654 0.2124-1e-3 0.2591"/><path d="m345.4 124c-0.0591 0.0655-0.1852 0.0481-0.2772-0.0411-0.094-0.0863-0.1198-0.2096-0.0612-0.2751 0.0598-0.0648 0.1866-0.0467 0.2793 0.0411 0.0933 0.087 0.1219 0.211 0.0592 0.2751"/><path d="m346.2 124.3c-0.0265 0.0842-0.1476 0.1226-0.2695 0.0863-0.1219-0.0369-0.2013-0.1351-0.1769-0.2207 0.0258-0.0842 0.1469-0.1247 0.2702-0.0863 0.1212 0.0369 0.2013 0.1351 0.1762 0.2208"/><path d="m347 124.4c2e-3 0.0891-0.1002 0.163-0.2284 0.1644-0.1288 2e-3 -0.2333-0.069-0.2347-0.1567 0-0.0891 0.1017-0.1623 0.2298-0.1643 0.1281-2e-3 0.2333 0.069 0.2333 0.1567"/><path d="m347.9 124.3c0.0153 0.0863-0.0738 0.1755-0.2006 0.1992-0.1254 0.023-0.241-0.0307-0.257-0.1163-0.0153-0.0891 0.0753-0.1776 0.1999-0.2006 0.1274-0.0223 0.2416 0.03 0.2577 0.1177"/></g></g></svg>
